<svg xmlns="http://www.w3.org/2000/svg" viewBox="0 0 1024.1 156.8"><defs><style>.cls-1{fill:#409eff;}</style></defs><title>资源 1</title><g id="图层_2" data-name="图层 2"><g id="图层_1-2" data-name="图层 1"><path class="cls-1" d="M44.9,11.9l36,113,37.9-113h44.9V156.5H134.4V48.2L96.7,156.6H65L29.3,48.2V156.6H0V11.9Z"/><path class="cls-1" d="M192.7,40.1V11.9h29.1V40.1Zm0,10.9h29.1V156.6H192.7Z"/><path class="cls-1" d="M279.5,11.9V92.8L318.3,51h32.5L309.6,92.8h7.8c10.1,0,17.1,3,21,8.9s5.9,16.4,5.9,31.4v23.4H315.2V131.8c0-6.6-1.1-11.1-3.3-13.3s-6.4-3.4-12.8-3.4H279.4v41.4H250.3V11.9Z"/><path class="cls-1" d="M454.4,92.4v22.5H393.3c.6,6.9,2.8,11.9,6.7,14.7s10.3,4.3,19.1,4.3h35.3v22.5H415.8c-8.4,0-15.2-.8-20.5-2.3a45.48,45.48,0,0,1-14.9-7.5q-19.35-15-19.3-44.4c0-12.7,3.4-23.9,10.2-33.4A39.49,39.49,0,0,1,388,54.9c6.5-2.7,15-4.1,25.6-4.1h40.8V73.3H415.8c-8,0-13.5,1.3-16.7,4s-5.1,7.6-5.9,14.9h61.2Z"/><path class="cls-1" d="M496.9,70.3H477.4V12h19.5Z"/><path class="cls-1" d="M616.8,51V73.5H565.4c-5.9,0-9.7.3-11.3.9-3.3,1.2-5,4-5,8.5a9.65,9.65,0,0,0,4.8,8.7c1.7,1.2,6.4,1.7,14,1.7H585c11,0,19.6,2.3,25.9,6.9,7.1,5.2,10.6,12.9,10.6,23a36.47,36.47,0,0,1-6.5,21c-3.2,5.1-7,8.4-11.6,10s-12.2,2.4-22.9,2.4H520.4V134.1h51.8c6.4,0,10.7-.1,13-.2,5.2-.6,7.8-3.5,7.8-8.9,0-4.3-1.7-7.3-5.2-8.9-1.7-.9-5.9-1.3-12.6-1.3H557.6c-6.9,0-12.3-.4-15.9-1.3a29.36,29.36,0,0,1-10.3-4.8,26.93,26.93,0,0,1-9.2-11.4,36.94,36.94,0,0,1-3.4-15.5c0-10.5,3.9-18.9,11.6-25.2,4.7-3.8,12.7-5.6,24.2-5.6Z"/><path class="cls-1" d="M634,25h14.3V.3h33V25h14.5V46.4H681.3V156.8h-33V46.4H634ZM699,8.7h47.5V.2h30.1V8.7h18.2L793.1,0h26.2l5.2,25.8H776.6v5h22a21.85,21.85,0,0,1,9.1,1.9,24.76,24.76,0,0,1,7.6,5.1,24.33,24.33,0,0,1,5.2,7.7,23,23,0,0,1,2,9.4V99.3H794v-8H776.7V98H746.6V91.3H729.5v8H700.9V30.8h45.7v-5H699Zm80.4,131.4a6.86,6.86,0,0,0,5-2,6.93,6.93,0,0,0,2-5.1v-6.4H699V109.9h87.4v-6.1h27.7v6.1h10.2v16.7H814.1v6.3a22.51,22.51,0,0,1-2,9.3,25,25,0,0,1-5.2,7.6,22.53,22.53,0,0,1-7.7,5.1,25,25,0,0,1-9.4,1.8H751.6l8.9-16.7h18.9Zm-32.5,13.2H722l-13.2-22.5h24.9ZM729.4,56.2h17.1V49.9H729.4Zm17.1,20.6V70.7H729.4v6.1Zm30.1-26.9v6.3H794a6.35,6.35,0,0,0-2.1-4.4,6.41,6.41,0,0,0-4.7-1.8H776.6ZM794,70.7H776.7v6.1H794Z"/><path class="cls-1" d="M999.1,59A94.61,94.61,0,0,1,985,71.6a104.48,104.48,0,0,1-16.9,10c9.5.7,18.8,1.2,27.9,1.3s17.6.2,25.7.2v18.4c-7.2.1-15,.2-23.2.2s-16.8-.1-25.7-.4-17.9-.8-27-1.5-18-1.8-26.6-3.3a373.25,373.25,0,0,1-41.1,4.8c-14.3.9-29,1.4-44.2,1.5V83.1c5.8.1,11.8.1,18.1-.1s12.8-.5,19.4-1a65.74,65.74,0,0,1-19.5-14.3h39.4c4.5,1.6,9.1,3,13.7,4.2s9.5,2.4,14.4,3.6a236.41,236.41,0,0,0,26-7,77.13,77.13,0,0,0,19.3-9.4H847.1l6.5-15H833.7V9.2l78.5.2L908.1.1h37.3l4.1,9.1h51a24.08,24.08,0,0,1,9.3,1.8,21.71,21.71,0,0,1,7.5,5.1,24.48,24.48,0,0,1,5,7.6,23.45,23.45,0,0,1,1.8,9.1V44.1H999.6v15h-.5Zm11,74a24.08,24.08,0,0,1-1.8,9.3,23.77,23.77,0,0,1-5.1,7.5,23.11,23.11,0,0,1-7.6,5.1,24.08,24.08,0,0,1-9.3,1.8H851.6V107.9h158.5ZM890,34.3l-2.8,6.3,107.1.2V32.6a6.2,6.2,0,0,0-2-4.8,6.57,6.57,0,0,0-4.8-2h-124v8.5Zm92.4,90.4h-103v15.4h96.1a6.78,6.78,0,0,0,5-1.9,6.26,6.26,0,0,0,1.9-4.7Z"/></g></g></svg>